<?xml version="1.0" encoding="UTF-8" standalone="no"?>
<svg width="1024" height="1024" viewBox="0 0 1024 1024" xmlns="http://www.w3.org/2000/svg">
  <defs>
    <linearGradient id="grad" x1="0%" y1="0%" x2="100%" y2="100%">
      <stop offset="0%" style="stop-color:#6366F1;stop-opacity:1" />
      <stop offset="100%" style="stop-color:#8B5CF6;stop-opacity:1" />
    </linearGradient>
  </defs>
  <rect width="1024" height="1024" rx="200" fill="url(#grad)"/>
  <path d="M312 362c0-33.1 26.9-60 60-60h280c33.1 0 60 26.9 60 60v300c0 33.1-26.9 60-60 60H372c-33.1 0-60-26.9-60-60V362z" fill="white"/>
  <circle cx="452" cy="482" r="40" fill="#6366F1"/>
  <circle cx="572" cy="482" r="40" fill="#6366F1"/>
  <path d="M452 562h120c11 0 20 9 20 20s-9 20-20 20H452c-11 0-20-9-20-20s9-20 20-20z" fill="#6366F1"/>
</svg> 